M48
; DRILL file {KiCad (5.1.2)-2} date 7/8/2019 10:16:16 AM
; FORMAT={-:-/ absolute / inch / decimal}
; #@! TF.CreationDate,2019-07-08T10:16:16-07:00
; #@! TF.GenerationSoftware,Kicad,Pcbnew,(5.1.2)-2
FMAT,2
INCH
T1C0.0394
T2C0.0433
T3C0.0787
%
G90
G05
T1
X4.125Y-2.7
X4.625Y-2.6
X4.976Y-1.958
X4.125Y-2.875
X4.725Y-2.7
X4.325Y-2.7
X5.9Y-2.1
X4.525Y-2.7
X3.925Y-1.7
X5.425Y-1.775
X4.964Y-2.088
X3.55Y-2.175
X4.225Y-2.6
X5.2388Y-2.225
X4.125Y-1.8
X5.375Y-2.55
X4.029Y-2.6
X4.025Y-2.875
X4.225Y-2.875
X4.325Y-2.875
X4.425Y-2.875
X4.525Y-2.875
X4.625Y-2.875
X4.725Y-2.875
X4.425Y-2.6
T2
X6.0313Y-2.1
X6.8187Y-2.1
T3
X6.425Y-2.1
T0
M30
