G04 #@! TF.GenerationSoftware,KiCad,Pcbnew,(5.1.2)-2*
G04 #@! TF.CreationDate,2019-07-08T10:17:59-07:00*
G04 #@! TF.ProjectId,Prototypedesign1,50726f74-6f74-4797-9065-64657369676e,rev?*
G04 #@! TF.SameCoordinates,Original*
G04 #@! TF.FileFunction,Copper,L2,Bot*
G04 #@! TF.FilePolarity,Positive*
%FSLAX46Y46*%
G04 Gerber Fmt 4.6, Leading zero omitted, Abs format (unit mm)*
G04 Created by KiCad (PCBNEW (5.1.2)-2) date 2019-07-08 10:17:59*
%MOMM*%
%LPD*%
G04 APERTURE LIST*
%ADD10C,2.000000*%
%ADD11O,1.200000X2.000000*%
%ADD12C,2.200000*%
%ADD13C,0.250000*%
G04 APERTURE END LIST*
D10*
X126085600Y-53035200D03*
X120015000Y-68580000D03*
X137795000Y-45085000D03*
X114935000Y-68580000D03*
X112395000Y-66040000D03*
X109855000Y-68580000D03*
X149860000Y-53340000D03*
X104775000Y-68580000D03*
X102336600Y-66040000D03*
X126390400Y-49733200D03*
X117475000Y-66040000D03*
X104775000Y-45720000D03*
X133065000Y-56515000D03*
X99695000Y-43180000D03*
X90170000Y-55245000D03*
X107315000Y-66040000D03*
X136525000Y-64770000D03*
D11*
X102235000Y-73025000D03*
X104775000Y-73025000D03*
X107315000Y-73025000D03*
X109855000Y-73025000D03*
X112395000Y-73025000D03*
X114935000Y-73025000D03*
X117475000Y-73025000D03*
X120015000Y-73025000D03*
D12*
X153195000Y-53340000D03*
X173195000Y-53340000D03*
D13*
X99695000Y-43180000D02*
X87630000Y-43180000D01*
X87630000Y-43180000D02*
X82550000Y-48260000D01*
X82550000Y-48260000D02*
X82550000Y-63500000D01*
X87630000Y-68580000D02*
X104775000Y-68580000D01*
X82550000Y-63500000D02*
X87630000Y-68580000D01*
X105774999Y-46719999D02*
X112759999Y-46719999D01*
X104775000Y-45720000D02*
X105774999Y-46719999D01*
X119075200Y-53035200D02*
X126085600Y-53035200D01*
X112759999Y-46719999D02*
X119075200Y-53035200D01*
X127499813Y-53035200D02*
X129540000Y-55075387D01*
X126085600Y-53035200D02*
X127499813Y-53035200D01*
X131625387Y-55075387D02*
X133065000Y-56515000D01*
X129540000Y-55075387D02*
X131625387Y-55075387D01*
X146685000Y-56515000D02*
X149860000Y-53340000D01*
X133065000Y-56515000D02*
X146685000Y-56515000D01*
X103360787Y-45720000D02*
X100185787Y-48895000D01*
X104775000Y-45720000D02*
X103360787Y-45720000D01*
X100185787Y-48895000D02*
X89535000Y-48895000D01*
X89535000Y-48895000D02*
X85725000Y-52705000D01*
X85725000Y-52705000D02*
X85725000Y-59055000D01*
X85725000Y-59055000D02*
X88265000Y-61595000D01*
X102870000Y-61595000D02*
X107315000Y-66040000D01*
X88265000Y-61595000D02*
X102870000Y-61595000D01*
X90170000Y-55245000D02*
X103505000Y-55245000D01*
X109855000Y-61595000D02*
X109855000Y-68580000D01*
X103505000Y-55245000D02*
X109855000Y-61595000D01*
X112395000Y-57785000D02*
X112395000Y-66040000D01*
X113665000Y-56515000D02*
X112395000Y-57785000D01*
X126855787Y-56515000D02*
X113665000Y-56515000D01*
X136525000Y-64770000D02*
X135110787Y-64770000D01*
X135110787Y-64770000D02*
X126855787Y-56515000D01*
X114935000Y-61595000D02*
X114935000Y-68580000D01*
X128270000Y-67945000D02*
X121285000Y-60960000D01*
X147955000Y-67945000D02*
X128270000Y-67945000D01*
X156210000Y-59690000D02*
X147955000Y-67945000D01*
X115570000Y-60960000D02*
X114935000Y-61595000D01*
X126390400Y-49733200D02*
X128572199Y-51914999D01*
X146205001Y-51914999D02*
X149860000Y-48260000D01*
X121285000Y-60960000D02*
X115570000Y-60960000D01*
X128572199Y-51914999D02*
X146205001Y-51914999D01*
X149860000Y-48260000D02*
X154940000Y-48260000D01*
X154940000Y-48260000D02*
X156210000Y-49530000D01*
X156210000Y-49530000D02*
X156210000Y-59690000D01*
X121920000Y-66040000D02*
X117475000Y-66040000D01*
X156845000Y-45085000D02*
X158115000Y-46355000D01*
X137795000Y-45085000D02*
X156845000Y-45085000D01*
X158115000Y-46355000D02*
X158115000Y-60325000D01*
X158115000Y-60325000D02*
X147320000Y-71120000D01*
X147320000Y-71120000D02*
X127000000Y-71120000D01*
X127000000Y-71120000D02*
X121920000Y-66040000D01*
M02*
