G04 #@! TF.GenerationSoftware,KiCad,Pcbnew,(5.1.2)-2*
G04 #@! TF.CreationDate,2019-08-07T17:13:24-07:00*
G04 #@! TF.ProjectId,solarcell,736f6c61-7263-4656-9c6c-2e6b69636164,rev?*
G04 #@! TF.SameCoordinates,Original*
G04 #@! TF.FileFunction,Copper,L1,Top*
G04 #@! TF.FilePolarity,Positive*
%FSLAX46Y46*%
G04 Gerber Fmt 4.6, Leading zero omitted, Abs format (unit mm)*
G04 Created by KiCad (PCBNEW (5.1.2)-2) date 2019-08-07 17:13:24*
%MOMM*%
%LPD*%
G04 APERTURE LIST*
%ADD10R,7.400000X4.000000*%
%ADD11C,2.200000*%
%ADD12C,0.250000*%
%ADD13C,0.254000*%
G04 APERTURE END LIST*
D10*
X76200000Y-77400000D03*
X76200000Y-100400000D03*
D11*
X73660000Y-70485000D03*
X76200000Y-70485000D03*
X78740000Y-70485000D03*
X78740000Y-107315000D03*
X76200000Y-107315000D03*
X73660000Y-107315000D03*
D12*
X76200000Y-102650000D02*
X73660000Y-105190000D01*
X76200000Y-100400000D02*
X76200000Y-102650000D01*
X73660000Y-105190000D02*
X73660000Y-107315000D01*
X76200000Y-75150000D02*
X73660000Y-72610000D01*
X76200000Y-77400000D02*
X76200000Y-75150000D01*
X73660000Y-72610000D02*
X73660000Y-70485000D01*
D13*
G36*
X71163000Y-70730933D02*
G01*
X71258958Y-71213348D01*
X71447187Y-71667773D01*
X71720453Y-72076745D01*
X72068255Y-72424547D01*
X72138000Y-72471149D01*
X72138000Y-72535233D01*
X72130636Y-72610000D01*
X72138000Y-72684766D01*
X72138000Y-72684768D01*
X72146493Y-72771000D01*
X61782000Y-72771000D01*
X61782000Y-70418000D01*
X71163000Y-70418000D01*
X71163000Y-70730933D01*
X71163000Y-70730933D01*
G37*
X71163000Y-70730933D02*
X71258958Y-71213348D01*
X71447187Y-71667773D01*
X71720453Y-72076745D01*
X72068255Y-72424547D01*
X72138000Y-72471149D01*
X72138000Y-72535233D01*
X72130636Y-72610000D01*
X72138000Y-72684766D01*
X72138000Y-72684768D01*
X72146493Y-72771000D01*
X61782000Y-72771000D01*
X61782000Y-70418000D01*
X71163000Y-70418000D01*
X71163000Y-70730933D01*
G36*
X90618000Y-72771000D02*
G01*
X79746084Y-72771000D01*
X79922773Y-72697813D01*
X80331745Y-72424547D01*
X80679547Y-72076745D01*
X80952813Y-71667773D01*
X81141042Y-71213348D01*
X81237000Y-70730933D01*
X81237000Y-70418000D01*
X90618000Y-70418000D01*
X90618000Y-72771000D01*
X90618000Y-72771000D01*
G37*
X90618000Y-72771000D02*
X79746084Y-72771000D01*
X79922773Y-72697813D01*
X80331745Y-72424547D01*
X80679547Y-72076745D01*
X80952813Y-71667773D01*
X81141042Y-71213348D01*
X81237000Y-70730933D01*
X81237000Y-70418000D01*
X90618000Y-70418000D01*
X90618000Y-72771000D01*
G36*
X90618001Y-104775000D02*
G01*
X83693000Y-104775000D01*
X83693000Y-73025000D01*
X90618000Y-73025000D01*
X90618001Y-104775000D01*
X90618001Y-104775000D01*
G37*
X90618001Y-104775000D02*
X83693000Y-104775000D01*
X83693000Y-73025000D01*
X90618000Y-73025000D01*
X90618001Y-104775000D01*
G36*
X69215000Y-104775000D02*
G01*
X61782000Y-104775000D01*
X61782000Y-73025000D01*
X69215000Y-73025000D01*
X69215000Y-104775000D01*
X69215000Y-104775000D01*
G37*
X69215000Y-104775000D02*
X61782000Y-104775000D01*
X61782000Y-73025000D01*
X69215000Y-73025000D01*
X69215000Y-104775000D01*
G36*
X72130636Y-105190000D02*
G01*
X72138000Y-105264767D01*
X72138000Y-105328851D01*
X72068255Y-105375453D01*
X71720453Y-105723255D01*
X71447187Y-106132227D01*
X71258958Y-106586652D01*
X71163000Y-107069067D01*
X71163000Y-107382000D01*
X61782000Y-107382000D01*
X61782000Y-105029000D01*
X72146493Y-105029000D01*
X72130636Y-105190000D01*
X72130636Y-105190000D01*
G37*
X72130636Y-105190000D02*
X72138000Y-105264767D01*
X72138000Y-105328851D01*
X72068255Y-105375453D01*
X71720453Y-105723255D01*
X71447187Y-106132227D01*
X71258958Y-106586652D01*
X71163000Y-107069067D01*
X71163000Y-107382000D01*
X61782000Y-107382000D01*
X61782000Y-105029000D01*
X72146493Y-105029000D01*
X72130636Y-105190000D01*
G36*
X90618001Y-107382000D02*
G01*
X81237000Y-107382000D01*
X81237000Y-107069067D01*
X81141042Y-106586652D01*
X80952813Y-106132227D01*
X80679547Y-105723255D01*
X80331745Y-105375453D01*
X79922773Y-105102187D01*
X79746084Y-105029000D01*
X90618001Y-105029000D01*
X90618001Y-107382000D01*
X90618001Y-107382000D01*
G37*
X90618001Y-107382000D02*
X81237000Y-107382000D01*
X81237000Y-107069067D01*
X81141042Y-106586652D01*
X80952813Y-106132227D01*
X80679547Y-105723255D01*
X80331745Y-105375453D01*
X79922773Y-105102187D01*
X79746084Y-105029000D01*
X90618001Y-105029000D01*
X90618001Y-107382000D01*
M02*
