G04 #@! TF.GenerationSoftware,KiCad,Pcbnew,(5.1.2)-2*
G04 #@! TF.CreationDate,2019-08-07T17:13:24-07:00*
G04 #@! TF.ProjectId,solarcell,736f6c61-7263-4656-9c6c-2e6b69636164,rev?*
G04 #@! TF.SameCoordinates,Original*
G04 #@! TF.FileFunction,Copper,L2,Bot*
G04 #@! TF.FilePolarity,Positive*
%FSLAX46Y46*%
G04 Gerber Fmt 4.6, Leading zero omitted, Abs format (unit mm)*
G04 Created by KiCad (PCBNEW (5.1.2)-2) date 2019-08-07 17:13:24*
%MOMM*%
%LPD*%
G04 APERTURE LIST*
%ADD10C,3.000000*%
%ADD11C,2.200000*%
%ADD12C,0.250000*%
%ADD13C,0.254000*%
G04 APERTURE END LIST*
D10*
X68200000Y-90900000D03*
X68200000Y-86900000D03*
D11*
X73660000Y-70485000D03*
X76200000Y-70485000D03*
X78740000Y-70485000D03*
X78740000Y-107315000D03*
X76200000Y-107315000D03*
X73660000Y-107315000D03*
D12*
X68200000Y-90900000D02*
X68200000Y-101728000D01*
X68200000Y-101728000D02*
X70993000Y-104521000D01*
X75946000Y-104521000D02*
X78740000Y-107315000D01*
X70993000Y-104521000D02*
X75946000Y-104521000D01*
X68200000Y-84778680D02*
X68199000Y-84777680D01*
X68200000Y-86900000D02*
X68200000Y-84778680D01*
X68199000Y-84777680D02*
X68199000Y-76327000D01*
X68199000Y-76327000D02*
X70993000Y-73533000D01*
X75692000Y-73533000D02*
X78740000Y-70485000D01*
X70993000Y-73533000D02*
X75692000Y-73533000D01*
D13*
G36*
X69286525Y-71650200D02*
G01*
X69286518Y-71650207D01*
X69189680Y-71729680D01*
X69110206Y-71826519D01*
X66492524Y-74444203D01*
X66395681Y-74523680D01*
X66316203Y-74620524D01*
X66316201Y-74620526D01*
X66078520Y-74910141D01*
X65842849Y-75351051D01*
X65697723Y-75829466D01*
X65648721Y-76327000D01*
X65661001Y-76451683D01*
X65661000Y-83820000D01*
X64389000Y-83820000D01*
X64364224Y-83822440D01*
X64340399Y-83829667D01*
X64318443Y-83841403D01*
X64299197Y-83857197D01*
X64283403Y-83876443D01*
X64271667Y-83898399D01*
X64264440Y-83922224D01*
X64262000Y-83947000D01*
X64262000Y-93853000D01*
X64264440Y-93877776D01*
X64271667Y-93901601D01*
X64283403Y-93923557D01*
X64299197Y-93942803D01*
X64318443Y-93958597D01*
X64340399Y-93970333D01*
X64364224Y-93977560D01*
X64389000Y-93980000D01*
X65662000Y-93980000D01*
X65662001Y-101603317D01*
X65649721Y-101728000D01*
X65698723Y-102225534D01*
X65843849Y-102703949D01*
X66057756Y-103104141D01*
X66079521Y-103144860D01*
X66396681Y-103531320D01*
X66493524Y-103610797D01*
X69110200Y-106227474D01*
X69189680Y-106324320D01*
X69240467Y-106366000D01*
X62798000Y-106366000D01*
X62798000Y-71434000D01*
X69549966Y-71434000D01*
X69286525Y-71650200D01*
X69286525Y-71650200D01*
G37*
X69286525Y-71650200D02*
X69286518Y-71650207D01*
X69189680Y-71729680D01*
X69110206Y-71826519D01*
X66492524Y-74444203D01*
X66395681Y-74523680D01*
X66316203Y-74620524D01*
X66316201Y-74620526D01*
X66078520Y-74910141D01*
X65842849Y-75351051D01*
X65697723Y-75829466D01*
X65648721Y-76327000D01*
X65661001Y-76451683D01*
X65661000Y-83820000D01*
X64389000Y-83820000D01*
X64364224Y-83822440D01*
X64340399Y-83829667D01*
X64318443Y-83841403D01*
X64299197Y-83857197D01*
X64283403Y-83876443D01*
X64271667Y-83898399D01*
X64264440Y-83922224D01*
X64262000Y-83947000D01*
X64262000Y-93853000D01*
X64264440Y-93877776D01*
X64271667Y-93901601D01*
X64283403Y-93923557D01*
X64299197Y-93942803D01*
X64318443Y-93958597D01*
X64340399Y-93970333D01*
X64364224Y-93977560D01*
X64389000Y-93980000D01*
X65662000Y-93980000D01*
X65662001Y-101603317D01*
X65649721Y-101728000D01*
X65698723Y-102225534D01*
X65843849Y-102703949D01*
X66057756Y-103104141D01*
X66079521Y-103144860D01*
X66396681Y-103531320D01*
X66493524Y-103610797D01*
X69110200Y-106227474D01*
X69189680Y-106324320D01*
X69240467Y-106366000D01*
X62798000Y-106366000D01*
X62798000Y-71434000D01*
X69549966Y-71434000D01*
X69286525Y-71650200D01*
G36*
X89602001Y-106366000D02*
G01*
X82133056Y-106366000D01*
X82117997Y-106290296D01*
X81853180Y-105650970D01*
X81468725Y-105075593D01*
X80979407Y-104586275D01*
X80404030Y-104201820D01*
X79764704Y-103937003D01*
X79086000Y-103802000D01*
X78816274Y-103802000D01*
X77828802Y-102814529D01*
X77749320Y-102717680D01*
X77362860Y-102400520D01*
X76921950Y-102164849D01*
X76443535Y-102019723D01*
X76070681Y-101983000D01*
X76070673Y-101983000D01*
X75946000Y-101970721D01*
X75821327Y-101983000D01*
X72044274Y-101983000D01*
X70738000Y-100676727D01*
X70738000Y-93980000D01*
X79629000Y-93980000D01*
X79653776Y-93977560D01*
X79677601Y-93970333D01*
X79699557Y-93958597D01*
X79718803Y-93942803D01*
X79734597Y-93923557D01*
X79746333Y-93901601D01*
X79753560Y-93877776D01*
X79756000Y-93853000D01*
X79756000Y-83947000D01*
X79753560Y-83922224D01*
X79746333Y-83898399D01*
X79734597Y-83876443D01*
X79718803Y-83857197D01*
X79699557Y-83841403D01*
X79677601Y-83829667D01*
X79653776Y-83822440D01*
X79629000Y-83820000D01*
X70737000Y-83820000D01*
X70737000Y-77378274D01*
X72044274Y-76071000D01*
X75567327Y-76071000D01*
X75692000Y-76083279D01*
X75816673Y-76071000D01*
X75816681Y-76071000D01*
X76189535Y-76034277D01*
X76667950Y-75889151D01*
X77108860Y-75653480D01*
X77495320Y-75336320D01*
X77574802Y-75239471D01*
X78816273Y-73998000D01*
X79086000Y-73998000D01*
X79764704Y-73862997D01*
X80404030Y-73598180D01*
X80979407Y-73213725D01*
X81468725Y-72724407D01*
X81853180Y-72149030D01*
X82117997Y-71509704D01*
X82133056Y-71434000D01*
X89602000Y-71434000D01*
X89602001Y-106366000D01*
X89602001Y-106366000D01*
G37*
X89602001Y-106366000D02*
X82133056Y-106366000D01*
X82117997Y-106290296D01*
X81853180Y-105650970D01*
X81468725Y-105075593D01*
X80979407Y-104586275D01*
X80404030Y-104201820D01*
X79764704Y-103937003D01*
X79086000Y-103802000D01*
X78816274Y-103802000D01*
X77828802Y-102814529D01*
X77749320Y-102717680D01*
X77362860Y-102400520D01*
X76921950Y-102164849D01*
X76443535Y-102019723D01*
X76070681Y-101983000D01*
X76070673Y-101983000D01*
X75946000Y-101970721D01*
X75821327Y-101983000D01*
X72044274Y-101983000D01*
X70738000Y-100676727D01*
X70738000Y-93980000D01*
X79629000Y-93980000D01*
X79653776Y-93977560D01*
X79677601Y-93970333D01*
X79699557Y-93958597D01*
X79718803Y-93942803D01*
X79734597Y-93923557D01*
X79746333Y-93901601D01*
X79753560Y-93877776D01*
X79756000Y-93853000D01*
X79756000Y-83947000D01*
X79753560Y-83922224D01*
X79746333Y-83898399D01*
X79734597Y-83876443D01*
X79718803Y-83857197D01*
X79699557Y-83841403D01*
X79677601Y-83829667D01*
X79653776Y-83822440D01*
X79629000Y-83820000D01*
X70737000Y-83820000D01*
X70737000Y-77378274D01*
X72044274Y-76071000D01*
X75567327Y-76071000D01*
X75692000Y-76083279D01*
X75816673Y-76071000D01*
X75816681Y-76071000D01*
X76189535Y-76034277D01*
X76667950Y-75889151D01*
X77108860Y-75653480D01*
X77495320Y-75336320D01*
X77574802Y-75239471D01*
X78816273Y-73998000D01*
X79086000Y-73998000D01*
X79764704Y-73862997D01*
X80404030Y-73598180D01*
X80979407Y-73213725D01*
X81468725Y-72724407D01*
X81853180Y-72149030D01*
X82117997Y-71509704D01*
X82133056Y-71434000D01*
X89602000Y-71434000D01*
X89602001Y-106366000D01*
M02*
